<?xml version="1.0" encoding="UTF-8" standalone="no"?>
<svg
   width="1600"
   height="950"
   viewBox="0 0 1600 950"
   version="1.1"
   id="svg43"
   sodipodi:docname="b2b_project_workflow.svg"
   xml:space="preserve"
   inkscape:version="1.4 (e7c3feb1, 2024-10-09)"
   xmlns:inkscape="http://www.inkscape.org/namespaces/inkscape"
   xmlns:sodipodi="http://sodipodi.sourceforge.net/DTD/sodipodi-0.dtd"
   xmlns:xlink="http://www.w3.org/1999/xlink"
   xmlns="http://www.w3.org/2000/svg"
   xmlns:svg="http://www.w3.org/2000/svg"><sodipodi:namedview
     id="namedview43"
     pagecolor="#ffffff"
     bordercolor="#000000"
     borderopacity="0.25"
     inkscape:showpageshadow="2"
     inkscape:pageopacity="0.0"
     inkscape:pagecheckerboard="0"
     inkscape:deskcolor="#d1d1d1"
     inkscape:zoom="0.66"
     inkscape:cx="720.45455"
     inkscape:cy="545.45455"
     inkscape:window-width="1680"
     inkscape:window-height="1027"
     inkscape:window-x="245"
     inkscape:window-y="25"
     inkscape:window-maximized="0"
     inkscape:current-layer="svg43" /><defs
     id="defs1"><marker
       id="arrow"
       markerWidth="12"
       markerHeight="12"
       refX="10"
       refY="6"
       orient="auto"><path
         d="M 0 0 L 12 6 L 0 12 z"
         fill="#000000"
         id="path1" /></marker><style
       type="text/css"
       id="style1">*{stroke-linejoin: round; stroke-linecap: butt}</style><path
       id="DejaVuSans-Oblique-45"
       d="M 1081 4666  L 4031 4666  L 3928 4134  L 1606 4134  L 1338 2753  L 3566 2753  L 3463 2222  L 1234 2222  L 909 531  L 3284 531  L 3181 0  L 172 0  L 1081 4666  z "
       transform="scale(0.015625)" /><path
       id="DejaVuSans-Oblique-47"
       d="M 3494 697  L 3738 1919  L 2700 1919  L 2797 2438  L 4453 2438  L 4050 384  Q 3634 156 3143 32  Q 2653 -91 2156 -91  Q 1278 -91 783 396  Q 288 884 288 1753  Q 288 2475 589 3126  Q 891 3778 1422 4213  Q 1756 4484 2153 4617  Q 2550 4750 3034 4750  Q 3472 4750 3873 4639  Q 4275 4528 4641 4306  L 4513 3634  Q 4231 3928 3853 4083  Q 3475 4238 3047 4238  Q 2550 4238 2172 4048  Q 1794 3859 1497 3463  Q 1244 3125 1098 2667  Q 953 2209 953 1734  Q 953 1081 1287 751  Q 1622 422 2284 422  Q 2616 422 2925 492  Q 3234 563 3494 697  z "
       transform="scale(0.015625)" /><path
       id="DejaVuSans-28"
       d="M 1984 4856  Q 1566 4138 1362 3434  Q 1159 2731 1159 2009  Q 1159 1288 1364 580  Q 1569 -128 1984 -844  L 1484 -844  Q 1016 -109 783 600  Q 550 1309 550 2009  Q 550 2706 781 3412  Q 1013 4119 1484 4856  L 1984 4856  z "
       transform="scale(0.015625)" /><path
       id="DejaVuSans-Oblique-74"
       d="M 2706 3500  L 2619 3053  L 1472 3053  L 1100 1153  Q 1081 1047 1072 975  Q 1063 903 1063 863  Q 1063 663 1183 572  Q 1303 481 1569 481  L 2150 481  L 2053 0  L 1503 0  Q 991 0 739 200  Q 488 400 488 806  Q 488 878 497 964  Q 506 1050 525 1153  L 897 3053  L 409 3053  L 500 3500  L 978 3500  L 1172 4494  L 1747 4494  L 1556 3500  L 2706 3500  z "
       transform="scale(0.015625)" /><path
       id="DejaVuSans-29"
       d="M 513 4856  L 1013 4856  Q 1481 4119 1714 3412  Q 1947 2706 1947 2009  Q 1947 1309 1714 600  Q 1481 -109 1013 -844  L 513 -844  Q 928 -128 1133 580  Q 1338 1288 1338 2009  Q 1338 2731 1133 3434  Q 928 4138 513 4856  z "
       transform="scale(0.015625)" /><path
       id="DejaVuSans-3d"
       d="M 678 2906  L 4684 2906  L 4684 2381  L 678 2381  L 678 2906  z M 678 1631  L 4684 1631  L 4684 1100  L 678 1100  L 678 1631  z "
       transform="scale(0.015625)" /><path
       id="DejaVuSans-Oblique-3b2"
       d="M 872 216  L 572 -1331  L -6 -1331  L 928 3478  Q 1206 4903 2538 4903  Q 3888 4903 3659 3700  Q 3503 2844 2894 2531  Q 3713 2250 3553 1416  Q 3272 -69 1759 -66  Q 1097 -63 872 216  z M 1019 966  Q 1259 422 1875 425  Q 2775 425 2966 1406  Q 3138 2288 1675 2219  L 1778 2750  Q 2909 2731 3106 3750  Q 3241 4438 2509 4434  Q 1691 4434 1503 3459  L 1019 966  z "
       transform="scale(0.015625)" /><path
       id="DejaVuSans-30"
       d="M 2034 4250  Q 1547 4250 1301 3770  Q 1056 3291 1056 2328  Q 1056 1369 1301 889  Q 1547 409 2034 409  Q 2525 409 2770 889  Q 3016 1369 3016 2328  Q 3016 3291 2770 3770  Q 2525 4250 2034 4250  z M 2034 4750  Q 2819 4750 3233 4129  Q 3647 3509 3647 2328  Q 3647 1150 3233 529  Q 2819 -91 2034 -91  Q 1250 -91 836 529  Q 422 1150 422 2328  Q 422 3509 836 4129  Q 1250 4750 2034 4750  z "
       transform="scale(0.015625)" /><path
       id="DejaVuSans-2b"
       d="M 2944 4013  L 2944 2272  L 4684 2272  L 4684 1741  L 2944 1741  L 2944 0  L 2419 0  L 2419 1741  L 678 1741  L 678 2272  L 2419 2272  L 2419 4013  L 2944 4013  z "
       transform="scale(0.015625)" /><path
       id="DejaVuSans-73"
       d="M 2834 3397  L 2834 2853  Q 2591 2978 2328 3040  Q 2066 3103 1784 3103  Q 1356 3103 1142 2972  Q 928 2841 928 2578  Q 928 2378 1081 2264  Q 1234 2150 1697 2047  L 1894 2003  Q 2506 1872 2764 1633  Q 3022 1394 3022 966  Q 3022 478 2636 193  Q 2250 -91 1575 -91  Q 1294 -91 989 -36  Q 684 19 347 128  L 347 722  Q 666 556 975 473  Q 1284 391 1588 391  Q 1994 391 2212 530  Q 2431 669 2431 922  Q 2431 1156 2273 1281  Q 2116 1406 1581 1522  L 1381 1569  Q 847 1681 609 1914  Q 372 2147 372 2553  Q 372 3047 722 3315  Q 1072 3584 1716 3584  Q 2034 3584 2315 3537  Q 2597 3491 2834 3397  z "
       transform="scale(0.015625)" /><path
       id="DejaVuSans-75"
       d="M 544 1381  L 544 3500  L 1119 3500  L 1119 1403  Q 1119 906 1312 657  Q 1506 409 1894 409  Q 2359 409 2629 706  Q 2900 1003 2900 1516  L 2900 3500  L 3475 3500  L 3475 0  L 2900 0  L 2900 538  Q 2691 219 2414 64  Q 2138 -91 1772 -91  Q 1169 -91 856 284  Q 544 659 544 1381  z M 1991 3584  L 1991 3584  z "
       transform="scale(0.015625)" /><path
       id="DejaVuSans-72"
       d="M 2631 2963  Q 2534 3019 2420 3045  Q 2306 3072 2169 3072  Q 1681 3072 1420 2755  Q 1159 2438 1159 1844  L 1159 0  L 581 0  L 581 3500  L 1159 3500  L 1159 2956  Q 1341 3275 1631 3429  Q 1922 3584 2338 3584  Q 2397 3584 2469 3576  Q 2541 3569 2628 3553  L 2631 2963  z "
       transform="scale(0.015625)" /><path
       id="DejaVuSans-70"
       d="M 1159 525  L 1159 -1331  L 581 -1331  L 581 3500  L 1159 3500  L 1159 2969  Q 1341 3281 1617 3432  Q 1894 3584 2278 3584  Q 2916 3584 3314 3078  Q 3713 2572 3713 1747  Q 3713 922 3314 415  Q 2916 -91 2278 -91  Q 1894 -91 1617 61  Q 1341 213 1159 525  z M 3116 1747  Q 3116 2381 2855 2742  Q 2594 3103 2138 3103  Q 1681 3103 1420 2742  Q 1159 2381 1159 1747  Q 1159 1113 1420 752  Q 1681 391 2138 391  Q 2594 391 2855 752  Q 3116 1113 3116 1747  z "
       transform="scale(0.015625)" /><path
       id="DejaVuSans-69"
       d="M 603 3500  L 1178 3500  L 1178 0  L 603 0  L 603 3500  z M 603 4863  L 1178 4863  L 1178 4134  L 603 4134  L 603 4863  z "
       transform="scale(0.015625)" /><path
       id="DejaVuSans-61"
       d="M 2194 1759  Q 1497 1759 1228 1600  Q 959 1441 959 1056  Q 959 750 1161 570  Q 1363 391 1709 391  Q 2188 391 2477 730  Q 2766 1069 2766 1631  L 2766 1759  L 2194 1759  z M 3341 1997  L 3341 0  L 2766 0  L 2766 531  Q 2569 213 2275 61  Q 1981 -91 1556 -91  Q 1019 -91 701 211  Q 384 513 384 1019  Q 384 1609 779 1909  Q 1175 2209 1959 2209  L 2766 2209  L 2766 2266  Q 2766 2663 2505 2880  Q 2244 3097 1772 3097  Q 1472 3097 1187 3025  Q 903 2953 641 2809  L 641 3341  Q 956 3463 1253 3523  Q 1550 3584 1831 3584  Q 2591 3584 2966 3190  Q 3341 2797 3341 1997  z "
       transform="scale(0.015625)" /><path
       id="DejaVuSans-6c"
       d="M 603 4863  L 1178 4863  L 1178 0  L 603 0  L 603 4863  z "
       transform="scale(0.015625)" /><path
       id="DejaVuSans-66"
       d="M 2375 4863  L 2375 4384  L 1825 4384  Q 1516 4384 1395 4259  Q 1275 4134 1275 3809  L 1275 3500  L 2222 3500  L 2222 3053  L 1275 3053  L 1275 0  L 697 0  L 697 3053  L 147 3053  L 147 3500  L 697 3500  L 697 3744  Q 697 4328 969 4595  Q 1241 4863 1831 4863  L 2375 4863  z "
       transform="scale(0.015625)" /><path
       id="DejaVuSans-65"
       d="M 3597 1894  L 3597 1613  L 953 1613  Q 991 1019 1311 708  Q 1631 397 2203 397  Q 2534 397 2845 478  Q 3156 559 3463 722  L 3463 178  Q 3153 47 2828 -22  Q 2503 -91 2169 -91  Q 1331 -91 842 396  Q 353 884 353 1716  Q 353 2575 817 3079  Q 1281 3584 2069 3584  Q 2775 3584 3186 3129  Q 3597 2675 3597 1894  z M 3022 2063  Q 3016 2534 2758 2815  Q 2500 3097 2075 3097  Q 1594 3097 1305 2825  Q 1016 2553 972 2059  L 3022 2063  z "
       transform="scale(0.015625)" /><path
       id="DejaVuSans-71"
       d="M 947 1747  Q 947 1113 1208 752  Q 1469 391 1925 391  Q 2381 391 2643 752  Q 2906 1113 2906 1747  Q 2906 2381 2643 2742  Q 2381 3103 1925 3103  Q 1469 3103 1208 2742  Q 947 2381 947 1747  z M 2906 525  Q 2725 213 2448 61  Q 2172 -91 1784 -91  Q 1150 -91 751 415  Q 353 922 353 1747  Q 353 2572 751 3078  Q 1150 3584 1784 3584  Q 2172 3584 2448 3432  Q 2725 3281 2906 2969  L 2906 3500  L 3481 3500  L 3481 -1331  L 2906 -1331  L 2906 525  z "
       transform="scale(0.015625)" /><path
       id="DejaVuSans-6f"
       d="M 1959 3097  Q 1497 3097 1228 2736  Q 959 2375 959 1747  Q 959 1119 1226 758  Q 1494 397 1959 397  Q 2419 397 2687 759  Q 2956 1122 2956 1747  Q 2956 2369 2687 2733  Q 2419 3097 1959 3097  z M 1959 3584  Q 2709 3584 3137 3096  Q 3566 2609 3566 1747  Q 3566 888 3137 398  Q 2709 -91 1959 -91  Q 1206 -91 779 398  Q 353 888 353 1747  Q 353 2609 779 3096  Q 1206 3584 1959 3584  z "
       transform="scale(0.015625)" /><path
       id="DejaVuSans-67"
       d="M 2906 1791  Q 2906 2416 2648 2759  Q 2391 3103 1925 3103  Q 1463 3103 1205 2759  Q 947 2416 947 1791  Q 947 1169 1205 825  Q 1463 481 1925 481  Q 2391 481 2648 825  Q 2906 1169 2906 1791  z M 3481 434  Q 3481 -459 3084 -895  Q 2688 -1331 1869 -1331  Q 1566 -1331 1297 -1286  Q 1028 -1241 775 -1147  L 775 -588  Q 1028 -725 1275 -790  Q 1522 -856 1778 -856  Q 2344 -856 2625 -561  Q 2906 -266 2906 331  L 2906 616  Q 2728 306 2450 153  Q 2172 0 1784 0  Q 1141 0 747 490  Q 353 981 353 1791  Q 353 2603 747 3093  Q 1141 3584 1784 3584  Q 2172 3584 2450 3431  Q 2728 3278 2906 2969  L 2906 3500  L 3481 3500  L 3481 434  z "
       transform="scale(0.015625)" /><path
       id="DejaVuSans-6e"
       d="M 3513 2113  L 3513 0  L 2938 0  L 2938 2094  Q 2938 2591 2744 2837  Q 2550 3084 2163 3084  Q 1697 3084 1428 2787  Q 1159 2491 1159 1978  L 1159 0  L 581 0  L 581 3500  L 1159 3500  L 1159 2956  Q 1366 3272 1645 3428  Q 1925 3584 2291 3584  Q 2894 3584 3203 3211  Q 3513 2838 3513 2113  z "
       transform="scale(0.015625)" /><path
       id="DejaVuSans-74"
       d="M 1172 4494  L 1172 3500  L 2356 3500  L 2356 3053  L 1172 3053  L 1172 1153  Q 1172 725 1289 603  Q 1406 481 1766 481  L 2356 481  L 2356 0  L 1766 0  Q 1100 0 847 248  Q 594 497 594 1153  L 594 3053  L 172 3053  L 172 3500  L 594 3500  L 594 4494  L 1172 4494  z "
       transform="scale(0.015625)" /><path
       id="DejaVuSans-68"
       d="M 3513 2113  L 3513 0  L 2938 0  L 2938 2094  Q 2938 2591 2744 2837  Q 2550 3084 2163 3084  Q 1697 3084 1428 2787  Q 1159 2491 1159 1978  L 1159 0  L 581 0  L 581 4863  L 1159 4863  L 1159 2956  Q 1366 3272 1645 3428  Q 1925 3584 2291 3584  Q 2894 3584 3203 3211  Q 3513 2838 3513 2113  z "
       transform="scale(0.015625)" /><path
       id="DejaVuSans-63"
       d="M 3122 3366  L 3122 2828  Q 2878 2963 2633 3030  Q 2388 3097 2138 3097  Q 1578 3097 1268 2742  Q 959 2388 959 1747  Q 959 1106 1268 751  Q 1578 397 2138 397  Q 2388 397 2633 464  Q 2878 531 3122 666  L 3122 134  Q 2881 22 2623 -34  Q 2366 -91 2075 -91  Q 1284 -91 818 406  Q 353 903 353 1747  Q 353 2603 823 3093  Q 1294 3584 2113 3584  Q 2378 3584 2631 3529  Q 2884 3475 3122 3366  z "
       transform="scale(0.015625)" /><path
       id="DejaVuSans-6d"
       d="M 3328 2828  Q 3544 3216 3844 3400  Q 4144 3584 4550 3584  Q 5097 3584 5394 3201  Q 5691 2819 5691 2113  L 5691 0  L 5113 0  L 5113 2094  Q 5113 2597 4934 2840  Q 4756 3084 4391 3084  Q 3944 3084 3684 2787  Q 3425 2491 3425 1978  L 3425 0  L 2847 0  L 2847 2094  Q 2847 2600 2669 2842  Q 2491 3084 2119 3084  Q 1678 3084 1418 2786  Q 1159 2488 1159 1978  L 1159 0  L 581 0  L 581 3500  L 1159 3500  L 1159 2956  Q 1356 3278 1631 3431  Q 1906 3584 2284 3584  Q 2666 3584 2933 3390  Q 3200 3197 3328 2828  z "
       transform="scale(0.015625)" /><path
       id="DejaVuSans-Oblique-3b5"
       d="M 1263 1888  Q 925 1963 778 2166  Q 669 2309 669 2503  Q 669 3034 1175 3344  Q 1575 3588 2188 3588  Q 2425 3588 2684 3550  Q 2944 3513 3234 3438  L 3134 2916  Q 2847 3006 2606 3047  Q 2359 3088 2138 3088  Q 1766 3088 1522 2944  Q 1228 2772 1228 2522  Q 1228 2356 1381 2241  Q 1563 2103 1925 2103  L 2409 2103  L 2319 1628  L 1856 1628  Q 1425 1628 1172 1469  Q 828 1253 828 916  Q 828 703 1013 563  Q 1244 388 1716 388  Q 2006 388 2284 444  Q 2563 503 2806 619  L 2700 84  Q 2403 -3 2131 -47  Q 1859 -91 1609 -91  Q 866 -91 516 194  Q 250 413 250 781  Q 250 1278 600 1584  Q 859 1813 1263 1888  z "
       transform="scale(0.015625)" /><style
       type="text/css"
       id="style1-5">*{stroke-linejoin: round; stroke-linecap: butt}</style><path
       id="DejaVuSans-Oblique-45-4"
       d="M 1081 4666  L 4031 4666  L 3928 4134  L 1606 4134  L 1338 2753  L 3566 2753  L 3463 2222  L 1234 2222  L 909 531  L 3284 531  L 3181 0  L 172 0  L 1081 4666  z "
       transform="scale(0.015625)" /><path
       id="DejaVuSans-Oblique-47-5"
       d="M 3494 697  L 3738 1919  L 2700 1919  L 2797 2438  L 4453 2438  L 4050 384  Q 3634 156 3143 32  Q 2653 -91 2156 -91  Q 1278 -91 783 396  Q 288 884 288 1753  Q 288 2475 589 3126  Q 891 3778 1422 4213  Q 1756 4484 2153 4617  Q 2550 4750 3034 4750  Q 3472 4750 3873 4639  Q 4275 4528 4641 4306  L 4513 3634  Q 4231 3928 3853 4083  Q 3475 4238 3047 4238  Q 2550 4238 2172 4048  Q 1794 3859 1497 3463  Q 1244 3125 1098 2667  Q 953 2209 953 1734  Q 953 1081 1287 751  Q 1622 422 2284 422  Q 2616 422 2925 492  Q 3234 563 3494 697  z "
       transform="scale(0.015625)" /><path
       id="DejaVuSans-28-1"
       d="M 1984 4856  Q 1566 4138 1362 3434  Q 1159 2731 1159 2009  Q 1159 1288 1364 580  Q 1569 -128 1984 -844  L 1484 -844  Q 1016 -109 783 600  Q 550 1309 550 2009  Q 550 2706 781 3412  Q 1013 4119 1484 4856  L 1984 4856  z "
       transform="scale(0.015625)" /><path
       id="DejaVuSans-Oblique-74-2"
       d="M 2706 3500  L 2619 3053  L 1472 3053  L 1100 1153  Q 1081 1047 1072 975  Q 1063 903 1063 863  Q 1063 663 1183 572  Q 1303 481 1569 481  L 2150 481  L 2053 0  L 1503 0  Q 991 0 739 200  Q 488 400 488 806  Q 488 878 497 964  Q 506 1050 525 1153  L 897 3053  L 409 3053  L 500 3500  L 978 3500  L 1172 4494  L 1747 4494  L 1556 3500  L 2706 3500  z "
       transform="scale(0.015625)" /><path
       id="DejaVuSans-29-3"
       d="M 513 4856  L 1013 4856  Q 1481 4119 1714 3412  Q 1947 2706 1947 2009  Q 1947 1309 1714 600  Q 1481 -109 1013 -844  L 513 -844  Q 928 -128 1133 580  Q 1338 1288 1338 2009  Q 1338 2731 1133 3434  Q 928 4138 513 4856  z "
       transform="scale(0.015625)" /><path
       id="DejaVuSans-3d-7"
       d="M 678 2906  L 4684 2906  L 4684 2381  L 678 2381  L 678 2906  z M 678 1631  L 4684 1631  L 4684 1100  L 678 1100  L 678 1631  z "
       transform="scale(0.015625)" /><path
       id="DejaVuSans-Oblique-3b2-2"
       d="M 872 216  L 572 -1331  L -6 -1331  L 928 3478  Q 1206 4903 2538 4903  Q 3888 4903 3659 3700  Q 3503 2844 2894 2531  Q 3713 2250 3553 1416  Q 3272 -69 1759 -66  Q 1097 -63 872 216  z M 1019 966  Q 1259 422 1875 425  Q 2775 425 2966 1406  Q 3138 2288 1675 2219  L 1778 2750  Q 2909 2731 3106 3750  Q 3241 4438 2509 4434  Q 1691 4434 1503 3459  L 1019 966  z "
       transform="scale(0.015625)" /><path
       id="DejaVuSans-30-4"
       d="M 2034 4250  Q 1547 4250 1301 3770  Q 1056 3291 1056 2328  Q 1056 1369 1301 889  Q 1547 409 2034 409  Q 2525 409 2770 889  Q 3016 1369 3016 2328  Q 3016 3291 2770 3770  Q 2525 4250 2034 4250  z M 2034 4750  Q 2819 4750 3233 4129  Q 3647 3509 3647 2328  Q 3647 1150 3233 529  Q 2819 -91 2034 -91  Q 1250 -91 836 529  Q 422 1150 422 2328  Q 422 3509 836 4129  Q 1250 4750 2034 4750  z "
       transform="scale(0.015625)" /><path
       id="DejaVuSans-2b-1"
       d="M 2944 4013  L 2944 2272  L 4684 2272  L 4684 1741  L 2944 1741  L 2944 0  L 2419 0  L 2419 1741  L 678 1741  L 678 2272  L 2419 2272  L 2419 4013  L 2944 4013  z "
       transform="scale(0.015625)" /><path
       id="DejaVuSans-73-8"
       d="M 2834 3397  L 2834 2853  Q 2591 2978 2328 3040  Q 2066 3103 1784 3103  Q 1356 3103 1142 2972  Q 928 2841 928 2578  Q 928 2378 1081 2264  Q 1234 2150 1697 2047  L 1894 2003  Q 2506 1872 2764 1633  Q 3022 1394 3022 966  Q 3022 478 2636 193  Q 2250 -91 1575 -91  Q 1294 -91 989 -36  Q 684 19 347 128  L 347 722  Q 666 556 975 473  Q 1284 391 1588 391  Q 1994 391 2212 530  Q 2431 669 2431 922  Q 2431 1156 2273 1281  Q 2116 1406 1581 1522  L 1381 1569  Q 847 1681 609 1914  Q 372 2147 372 2553  Q 372 3047 722 3315  Q 1072 3584 1716 3584  Q 2034 3584 2315 3537  Q 2597 3491 2834 3397  z "
       transform="scale(0.015625)" /><path
       id="DejaVuSans-75-2"
       d="M 544 1381  L 544 3500  L 1119 3500  L 1119 1403  Q 1119 906 1312 657  Q 1506 409 1894 409  Q 2359 409 2629 706  Q 2900 1003 2900 1516  L 2900 3500  L 3475 3500  L 3475 0  L 2900 0  L 2900 538  Q 2691 219 2414 64  Q 2138 -91 1772 -91  Q 1169 -91 856 284  Q 544 659 544 1381  z M 1991 3584  L 1991 3584  z "
       transform="scale(0.015625)" /><path
       id="DejaVuSans-72-6"
       d="M 2631 2963  Q 2534 3019 2420 3045  Q 2306 3072 2169 3072  Q 1681 3072 1420 2755  Q 1159 2438 1159 1844  L 1159 0  L 581 0  L 581 3500  L 1159 3500  L 1159 2956  Q 1341 3275 1631 3429  Q 1922 3584 2338 3584  Q 2397 3584 2469 3576  Q 2541 3569 2628 3553  L 2631 2963  z "
       transform="scale(0.015625)" /><path
       id="DejaVuSans-70-0"
       d="M 1159 525  L 1159 -1331  L 581 -1331  L 581 3500  L 1159 3500  L 1159 2969  Q 1341 3281 1617 3432  Q 1894 3584 2278 3584  Q 2916 3584 3314 3078  Q 3713 2572 3713 1747  Q 3713 922 3314 415  Q 2916 -91 2278 -91  Q 1894 -91 1617 61  Q 1341 213 1159 525  z M 3116 1747  Q 3116 2381 2855 2742  Q 2594 3103 2138 3103  Q 1681 3103 1420 2742  Q 1159 2381 1159 1747  Q 1159 1113 1420 752  Q 1681 391 2138 391  Q 2594 391 2855 752  Q 3116 1113 3116 1747  z "
       transform="scale(0.015625)" /><path
       id="DejaVuSans-69-3"
       d="M 603 3500  L 1178 3500  L 1178 0  L 603 0  L 603 3500  z M 603 4863  L 1178 4863  L 1178 4134  L 603 4134  L 603 4863  z "
       transform="scale(0.015625)" /><path
       id="DejaVuSans-61-9"
       d="M 2194 1759  Q 1497 1759 1228 1600  Q 959 1441 959 1056  Q 959 750 1161 570  Q 1363 391 1709 391  Q 2188 391 2477 730  Q 2766 1069 2766 1631  L 2766 1759  L 2194 1759  z M 3341 1997  L 3341 0  L 2766 0  L 2766 531  Q 2569 213 2275 61  Q 1981 -91 1556 -91  Q 1019 -91 701 211  Q 384 513 384 1019  Q 384 1609 779 1909  Q 1175 2209 1959 2209  L 2766 2209  L 2766 2266  Q 2766 2663 2505 2880  Q 2244 3097 1772 3097  Q 1472 3097 1187 3025  Q 903 2953 641 2809  L 641 3341  Q 956 3463 1253 3523  Q 1550 3584 1831 3584  Q 2591 3584 2966 3190  Q 3341 2797 3341 1997  z "
       transform="scale(0.015625)" /><path
       id="DejaVuSans-6c-4"
       d="M 603 4863  L 1178 4863  L 1178 0  L 603 0  L 603 4863  z "
       transform="scale(0.015625)" /><path
       id="DejaVuSans-66-9"
       d="M 2375 4863  L 2375 4384  L 1825 4384  Q 1516 4384 1395 4259  Q 1275 4134 1275 3809  L 1275 3500  L 2222 3500  L 2222 3053  L 1275 3053  L 1275 0  L 697 0  L 697 3053  L 147 3053  L 147 3500  L 697 3500  L 697 3744  Q 697 4328 969 4595  Q 1241 4863 1831 4863  L 2375 4863  z "
       transform="scale(0.015625)" /><path
       id="DejaVuSans-65-6"
       d="M 3597 1894  L 3597 1613  L 953 1613  Q 991 1019 1311 708  Q 1631 397 2203 397  Q 2534 397 2845 478  Q 3156 559 3463 722  L 3463 178  Q 3153 47 2828 -22  Q 2503 -91 2169 -91  Q 1331 -91 842 396  Q 353 884 353 1716  Q 353 2575 817 3079  Q 1281 3584 2069 3584  Q 2775 3584 3186 3129  Q 3597 2675 3597 1894  z M 3022 2063  Q 3016 2534 2758 2815  Q 2500 3097 2075 3097  Q 1594 3097 1305 2825  Q 1016 2553 972 2059  L 3022 2063  z "
       transform="scale(0.015625)" /><path
       id="DejaVuSans-71-5"
       d="M 947 1747  Q 947 1113 1208 752  Q 1469 391 1925 391  Q 2381 391 2643 752  Q 2906 1113 2906 1747  Q 2906 2381 2643 2742  Q 2381 3103 1925 3103  Q 1469 3103 1208 2742  Q 947 2381 947 1747  z M 2906 525  Q 2725 213 2448 61  Q 2172 -91 1784 -91  Q 1150 -91 751 415  Q 353 922 353 1747  Q 353 2572 751 3078  Q 1150 3584 1784 3584  Q 2172 3584 2448 3432  Q 2725 3281 2906 2969  L 2906 3500  L 3481 3500  L 3481 -1331  L 2906 -1331  L 2906 525  z "
       transform="scale(0.015625)" /><path
       id="DejaVuSans-6f-1"
       d="M 1959 3097  Q 1497 3097 1228 2736  Q 959 2375 959 1747  Q 959 1119 1226 758  Q 1494 397 1959 397  Q 2419 397 2687 759  Q 2956 1122 2956 1747  Q 2956 2369 2687 2733  Q 2419 3097 1959 3097  z M 1959 3584  Q 2709 3584 3137 3096  Q 3566 2609 3566 1747  Q 3566 888 3137 398  Q 2709 -91 1959 -91  Q 1206 -91 779 398  Q 353 888 353 1747  Q 353 2609 779 3096  Q 1206 3584 1959 3584  z "
       transform="scale(0.015625)" /><path
       id="DejaVuSans-67-3"
       d="M 2906 1791  Q 2906 2416 2648 2759  Q 2391 3103 1925 3103  Q 1463 3103 1205 2759  Q 947 2416 947 1791  Q 947 1169 1205 825  Q 1463 481 1925 481  Q 2391 481 2648 825  Q 2906 1169 2906 1791  z M 3481 434  Q 3481 -459 3084 -895  Q 2688 -1331 1869 -1331  Q 1566 -1331 1297 -1286  Q 1028 -1241 775 -1147  L 775 -588  Q 1028 -725 1275 -790  Q 1522 -856 1778 -856  Q 2344 -856 2625 -561  Q 2906 -266 2906 331  L 2906 616  Q 2728 306 2450 153  Q 2172 0 1784 0  Q 1141 0 747 490  Q 353 981 353 1791  Q 353 2603 747 3093  Q 1141 3584 1784 3584  Q 2172 3584 2450 3431  Q 2728 3278 2906 2969  L 2906 3500  L 3481 3500  L 3481 434  z "
       transform="scale(0.015625)" /><path
       id="DejaVuSans-6e-2"
       d="M 3513 2113  L 3513 0  L 2938 0  L 2938 2094  Q 2938 2591 2744 2837  Q 2550 3084 2163 3084  Q 1697 3084 1428 2787  Q 1159 2491 1159 1978  L 1159 0  L 581 0  L 581 3500  L 1159 3500  L 1159 2956  Q 1366 3272 1645 3428  Q 1925 3584 2291 3584  Q 2894 3584 3203 3211  Q 3513 2838 3513 2113  z "
       transform="scale(0.015625)" /><path
       id="DejaVuSans-74-6"
       d="M 1172 4494  L 1172 3500  L 2356 3500  L 2356 3053  L 1172 3053  L 1172 1153  Q 1172 725 1289 603  Q 1406 481 1766 481  L 2356 481  L 2356 0  L 1766 0  Q 1100 0 847 248  Q 594 497 594 1153  L 594 3053  L 172 3053  L 172 3500  L 594 3500  L 594 4494  L 1172 4494  z "
       transform="scale(0.015625)" /><path
       id="DejaVuSans-68-9"
       d="M 3513 2113  L 3513 0  L 2938 0  L 2938 2094  Q 2938 2591 2744 2837  Q 2550 3084 2163 3084  Q 1697 3084 1428 2787  Q 1159 2491 1159 1978  L 1159 0  L 581 0  L 581 4863  L 1159 4863  L 1159 2956  Q 1366 3272 1645 3428  Q 1925 3584 2291 3584  Q 2894 3584 3203 3211  Q 3513 2838 3513 2113  z "
       transform="scale(0.015625)" /><path
       id="DejaVuSans-63-0"
       d="M 3122 3366  L 3122 2828  Q 2878 2963 2633 3030  Q 2388 3097 2138 3097  Q 1578 3097 1268 2742  Q 959 2388 959 1747  Q 959 1106 1268 751  Q 1578 397 2138 397  Q 2388 397 2633 464  Q 2878 531 3122 666  L 3122 134  Q 2881 22 2623 -34  Q 2366 -91 2075 -91  Q 1284 -91 818 406  Q 353 903 353 1747  Q 353 2603 823 3093  Q 1294 3584 2113 3584  Q 2378 3584 2631 3529  Q 2884 3475 3122 3366  z "
       transform="scale(0.015625)" /><path
       id="DejaVuSans-6d-0"
       d="M 3328 2828  Q 3544 3216 3844 3400  Q 4144 3584 4550 3584  Q 5097 3584 5394 3201  Q 5691 2819 5691 2113  L 5691 0  L 5113 0  L 5113 2094  Q 5113 2597 4934 2840  Q 4756 3084 4391 3084  Q 3944 3084 3684 2787  Q 3425 2491 3425 1978  L 3425 0  L 2847 0  L 2847 2094  Q 2847 2600 2669 2842  Q 2491 3084 2119 3084  Q 1678 3084 1418 2786  Q 1159 2488 1159 1978  L 1159 0  L 581 0  L 581 3500  L 1159 3500  L 1159 2956  Q 1356 3278 1631 3431  Q 1906 3584 2284 3584  Q 2666 3584 2933 3390  Q 3200 3197 3328 2828  z "
       transform="scale(0.015625)" /><path
       id="DejaVuSans-Oblique-3b5-3"
       d="M 1263 1888  Q 925 1963 778 2166  Q 669 2309 669 2503  Q 669 3034 1175 3344  Q 1575 3588 2188 3588  Q 2425 3588 2684 3550  Q 2944 3513 3234 3438  L 3134 2916  Q 2847 3006 2606 3047  Q 2359 3088 2138 3088  Q 1766 3088 1522 2944  Q 1228 2772 1228 2522  Q 1228 2356 1381 2241  Q 1563 2103 1925 2103  L 2409 2103  L 2319 1628  L 1856 1628  Q 1425 1628 1172 1469  Q 828 1253 828 916  Q 828 703 1013 563  Q 1244 388 1716 388  Q 2006 388 2284 444  Q 2563 503 2806 619  L 2700 84  Q 2403 -3 2131 -47  Q 1859 -91 1609 -91  Q 866 -91 516 194  Q 250 413 250 781  Q 250 1278 600 1584  Q 859 1813 1263 1888  z "
       transform="scale(0.015625)" /></defs><rect
     x="40"
     y="82"
     width="735"
     height="790"
     rx="22"
     ry="22"
     fill="#f6f6f6"
     stroke="#000000"
     stroke-width="2"
     stroke-dasharray="8, 6"
     id="rect2" /><rect
     x="825"
     y="82"
     width="735"
     height="790"
     rx="22"
     ry="22"
     fill="#f6f6f6"
     stroke="#000000"
     stroke-width="2"
     stroke-dasharray="8, 6"
     id="rect3" /><text
     x="64"
     y="120"
     font-family="Helvetica, Arial, sans-serif"
     font-size="22px"
     font-weight="700"
     id="text3">Module 1 · Simulation benchmark</text><text
     x="849"
     y="120"
     font-family="Helvetica, Arial, sans-serif"
     font-size="22px"
     font-weight="700"
     id="text4">Module 2 · Real-data application (ZuCo)</text><rect
     x="70"
     y="142"
     width="675"
     height="140"
     rx="16"
     ry="16"
     fill="#ffffff"
     stroke="#000000"
     stroke-width="2"
     id="rect4" /><text
     x="407.5"
     y="224.25"
     text-anchor="middle"
     font-family="Helvetica, Arial, sans-serif"
     font-size="18px"
     id="text6"
     style="font-size:18px;font-family:Helvetica, Arial, sans-serif;text-anchor:middle;white-space:pre;inline-size:641.762;stroke-linecap:butt;stroke-linejoin:round"
     xml:space="preserve"
     transform="translate(0,-28)"><tspan
       x="407.5"
       y="224.25"
       id="tspan3"><tspan
   style="font-weight:bold;-inkscape-font-specification:'Helvetica, Arial, sans-serif, Bold'"
   id="tspan1">Simulation</tspan> <tspan
   style="font-weight:bold;font-family:Sans;-inkscape-font-specification:'Sans, Bold'"
   id="tspan2">generator
</tspan></tspan><tspan
       x="407.5"
       y="247.25322"
       id="tspan5">(co-registration-like)
</tspan><tspan
       x="407.5"
       y="269.75322"
       id="tspan6">Manipulate: overlap × collinearity</tspan></text><rect
     x="70"
     y="306"
     width="675"
     height="190"
     rx="16"
     ry="16"
     fill="#ffffff"
     stroke="#000000"
     stroke-width="2"
     id="rect6" /><text
     x="257.19696"
     y="345.15912"
     text-anchor="middle"
     font-family="Helvetica, Arial, sans-serif"
     font-size="17px"
     id="text12"
     style="font-size:17px;font-family:Helvetica, Arial, sans-serif;text-anchor:middle"><tspan
       x="257.19696"
       dy="0"
       id="tspan7"><tspan
   style="font-style:normal;font-variant:normal;font-weight:bold;font-stretch:normal;font-size:17px;font-family:Sans;-inkscape-font-specification:'Sans, Bold';font-variant-ligatures:normal;font-variant-caps:normal;font-variant-numeric:normal;font-variant-east-asian:normal"
   id="tspan44">Pipelines</tspan> (5)</tspan><tspan
       x="257.19696"
       dy="21.25"
       id="tspan8">1) Standard decoding</tspan><tspan
       x="257.19696"
       dy="21.25"
       id="tspan9">2) B2B</tspan><tspan
       x="257.19696"
       dy="21.25"
       id="tspan10">3) rERP (Unfold)</tspan><tspan
       x="257.19696"
       dy="21.25"
       id="tspan11">4) Two-step (rERP → B2B)</tspan><tspan
       x="257.19696"
       dy="21.25"
       id="tspan12">5) One-step(rERP + B2B)</tspan></text><text
     x="549.31812"
     y="365.95453"
     text-anchor="middle"
     font-family="Helvetica, Arial, sans-serif"
     font-size="18px"
     id="text14"
     style="font-size:18px;font-family:Helvetica, Arial, sans-serif;text-anchor:middle"><tspan
       sodipodi:role="line"
       id="tspan53"
       x="549.31812"
       y="365.95453"><tspan
         x="549.31812"
         dy="0"
         id="tspan13"><tspan
   style="font-style:normal;font-variant:normal;font-weight:bold;font-stretch:normal;font-size:18px;font-family:Sans;-inkscape-font-specification:'Sans, Bold';font-variant-ligatures:normal;font-variant-caps:normal;font-variant-numeric:normal;font-variant-east-asian:normal"
   id="tspan45">Solver</tspan> <tspan
   style="font-style:normal;font-variant:normal;font-weight:bold;font-stretch:normal;font-size:18px;font-family:Sans;-inkscape-font-specification:'Sans, Bold';font-variant-ligatures:normal;font-variant-caps:normal;font-variant-numeric:normal;font-variant-east-asian:normal"
   id="tspan49">variants</tspan></tspan></tspan><tspan
       sodipodi:role="line"
       id="tspan54"
       x="549.31812"
       y="388.95773"><tspan
         x="549.31812"
         id="tspan55">(backward step)</tspan><tspan
         x="549.31812"
         dy="22.5"
         id="tspan14">ridge (L2) vs linear SVM</tspan></tspan></text><rect
     x="70"
     y="534"
     width="675"
     height="140"
     rx="16"
     ry="16"
     fill="#ffffff"
     stroke="#000000"
     stroke-width="2"
     id="rect14" /><text
     x="407.5"
     y="616.25"
     text-anchor="middle"
     font-family="Helvetica, Arial, sans-serif"
     font-size="18px"
     id="text17"
     style="font-size:18px;font-family:Helvetica, Arial, sans-serif;text-anchor:middle;white-space:pre;inline-size:459.432"
     xml:space="preserve"
     transform="translate(0,-28)"><tspan
       x="407.5"
       y="616.25"
       id="tspan17"><tspan
   style="font-weight:bold;font-family:Sans;-inkscape-font-specification:'Sans, Bold'"
   id="tspan15">Evaluation</tspan><tspan
   style="font-weight:bold;font-family:Sans;-inkscape-font-specification:'Sans, Bold'"
   id="tspan16"> (ground truth)</tspan>
</tspan><tspan
       x="407.5"
       y="639.25322"
       id="tspan18">Precision/recall/F1 + stability</tspan></text><rect
     x="70"
     y="718"
     width="675"
     height="110"
     rx="16"
     ry="16"
     fill="#ffffff"
     stroke="#000000"
     stroke-width="2"
     id="rect17" /><text
     x="407.5"
     y="796.5"
     text-anchor="middle"
     font-family="Helvetica, Arial, sans-serif"
     font-size="18px"
     id="text19"
     style="font-size:18px;font-family:Helvetica, Arial, sans-serif;text-anchor:middle;white-space:pre;inline-size:306.354"
     xml:space="preserve"
     transform="translate(0,-28)"><tspan
       x="407.5"
       y="796.5"
       id="tspan28"><tspan
   style="font-weight:bold;font-family:Sans;-inkscape-font-specification:'Sans, Bold'"
   id="tspan19">Select</tspan> <tspan
   style="font-weight:bold;font-family:Sans;-inkscape-font-specification:'Sans, Bold'"
   id="tspan26">best</tspan> <tspan
   style="font-weight:bold;font-family:Sans;-inkscape-font-specification:'Sans, Bold'"
   id="tspan27">configurations</tspan>
</tspan><tspan
       x="407.5"
       y="819.50322"
       id="tspan33">(based on simulation results)</tspan></text><rect
     x="855"
     y="142"
     width="675"
     height="110"
     rx="16"
     ry="16"
     fill="#ffffff"
     stroke="#000000"
     stroke-width="2"
     id="rect19" /><text
     x="1192.5"
     y="192.5"
     text-anchor="middle"
     font-family="Helvetica, Arial, sans-serif"
     font-size="18px"
     id="text21"
     style="font-size:18px;font-family:Helvetica, Arial, sans-serif;text-anchor:middle"><tspan
       x="1192.5"
       dy="0"
       id="tspan20"><tspan
   style="font-style:normal;font-variant:normal;font-weight:bold;font-stretch:normal;font-size:18px;font-family:Sans;-inkscape-font-specification:'Sans, Bold';font-variant-ligatures:normal;font-variant-caps:normal;font-variant-numeric:normal;font-variant-east-asian:normal"
   id="tspan59">ZuCo</tspan> data</tspan><tspan
       x="1192.5"
       dy="22.5"
       id="tspan21">(ET–EEG natural reading)</tspan></text><rect
     x="855"
     y="276"
     width="675"
     height="140"
     rx="16"
     ry="16"
     fill="#ffffff"
     stroke="#000000"
     stroke-width="2"
     id="rect21" /><text
     x="1192.5"
     y="320.5"
     text-anchor="middle"
     font-family="Helvetica, Arial, sans-serif"
     font-size="17px"
     id="text25"
     style="font-size:17px;font-family:Helvetica, Arial, sans-serif;text-anchor:middle"><tspan
       x="1192.5"
       dy="0"
       id="tspan22"><tspan
   style="font-style:normal;font-variant:normal;font-weight:bold;font-stretch:normal;font-size:17px;font-family:Sans;-inkscape-font-specification:'Sans, Bold';font-variant-ligatures:normal;font-variant-caps:normal;font-variant-numeric:normal;font-variant-east-asian:normal"
   id="tspan60">Predictors</tspan> &amp; events</tspan><tspan
       x="1192.5"
       dy="21.25"
       id="tspan23">Fixation onsets</tspan><tspan
       x="1192.5"
       dy="21.25"
       id="tspan24">Lexical: surprisal, logfreq, length</tspan><tspan
       x="1192.5"
       dy="21.25"
       id="tspan25">Oculomotor: saccade amp, refixation, landing pos</tspan></text><rect
     x="855"
     y="440"
     width="675"
     height="140"
     rx="16"
     ry="16"
     fill="#ffffff"
     stroke="#000000"
     stroke-width="2"
     id="rect25" /><rect
     x="855"
     y="604"
     width="675"
     height="110"
     rx="16"
     ry="16"
     fill="#ffffff"
     stroke="#000000"
     stroke-width="2"
     id="rect28" /><text
     x="1192.5"
     y="503.25"
     text-anchor="middle"
     font-family="Helvetica, Arial, sans-serif"
     font-size="18px"
     id="text31"
     style="font-size:18px;font-family:Helvetica, Arial, sans-serif;text-anchor:middle"><tspan
       x="1192.5"
       dy="0"
       id="tspan29"><tspan
   style="font-style:normal;font-variant:normal;font-weight:bold;font-stretch:normal;font-size:18px;font-family:Sans;-inkscape-font-specification:'Sans, Bold';font-variant-ligatures:normal;font-variant-caps:normal;font-variant-numeric:normal;font-variant-east-asian:normal"
   id="tspan64">Apply</tspan> best pipelines</tspan><tspan
       x="1192.5"
       dy="22.5"
       id="tspan30">(e.g., rERP + B2B)</tspan><tspan
       x="1192.5"
       id="tspan31" /></text><rect
     x="854.91602"
     y="737.91602"
     width="675.16797"
     height="117.44071"
     rx="16.003983"
     ry="13.421796"
     fill="#ffffff"
     stroke="#000000"
     stroke-width="1.83202"
     id="rect31" /><text
     x="1192.5"
     y="781"
     text-anchor="middle"
     font-family="Helvetica, Arial, sans-serif"
     font-size="18px"
     id="text35"
     style="font-size:18px;font-family:Helvetica, Arial, sans-serif;text-anchor:middle"><tspan
       sodipodi:role="line"
       id="tspan61"
       x="1192.5"
       y="781"><tspan
         x="1192.5"
         dy="0 0 0 0 0 0 0 0 0 0 0 0 0 0 0 0 0 0 0 0 0 0 0 0 0 0 0 0 0 0"
         id="tspan32"><tspan
   style="font-style:normal;font-variant:normal;font-weight:bold;font-stretch:normal;font-size:18px;font-family:Sans;-inkscape-font-specification:'Sans, Bold';font-variant-ligatures:normal;font-variant-caps:normal;font-variant-numeric:normal;font-variant-east-asian:normal"
   id="tspan63">Reporting</tspan> (no ground truth)</tspan></tspan><tspan
       sodipodi:role="line"
       id="tspan62"
       x="1192.5"
       y="804.00323">Statistical test</tspan></text><line
     x1="407.5"
     y1="282"
     x2="407.5"
     y2="306"
     stroke="#000000"
     stroke-width="2.5"
     marker-end="url(#arrow)"
     id="line35" /><line
     x1="407.5"
     y1="496"
     x2="407.5"
     y2="520"
     stroke="#000000"
     stroke-width="2.5"
     marker-end="url(#arrow)"
     id="line36" /><line
     x1="407.5"
     y1="674"
     x2="407.5"
     y2="698"
     stroke="#000000"
     stroke-width="2.5"
     marker-end="url(#arrow)"
     id="line38" /><line
     x1="1192.5"
     y1="252"
     x2="1192.5"
     y2="276"
     stroke="#000000"
     stroke-width="2.5"
     marker-end="url(#arrow)"
     id="line39" /><line
     x1="1192.5"
     y1="416"
     x2="1192.5"
     y2="440"
     stroke="#000000"
     stroke-width="2.5"
     marker-end="url(#arrow)"
     id="line40" /><line
     x1="1192.5"
     y1="580"
     x2="1192.5"
     y2="604"
     stroke="#000000"
     stroke-width="2.5"
     marker-end="url(#arrow)"
     id="line41" /><line
     x1="1192.5"
     y1="714"
     x2="1192.5"
     y2="738"
     stroke="#000000"
     stroke-width="2.5"
     marker-end="url(#arrow)"
     id="line42" /><line
     x1="751.05035"
     y1="792.82764"
     x2="855.00861"
     y2="572.66571"
     stroke="#000000"
     stroke-width="2.46512"
     marker-end="url(#arrow)"
     id="line43" /><text
     x="800"
     y="801"
     text-anchor="middle"
     font-family="Helvetica, Arial, sans-serif"
     font-size="16px"
     id="text43">best pipelines</text><text
     xml:space="preserve"
     style="font-style:normal;font-variant:normal;font-weight:bold;font-stretch:normal;font-size:18px;font-family:Sans;-inkscape-font-specification:'Sans, Bold';font-variant-ligatures:normal;font-variant-caps:normal;font-variant-numeric:normal;font-variant-east-asian:normal;text-align:start;writing-mode:lr-tb;direction:ltr;text-anchor:start;fill:#1a1a1a;stroke:#000000;stroke-width:0.0755906;stroke-linecap:round;stroke-linejoin:round"
     x="1134.8485"
     y="647.75757"
     id="text66"><tspan
       sodipodi:role="line"
       id="tspan66"
       x="1134.8485"
       y="647.75757">Fit mode <tspan
   style="font-style:normal;font-variant:normal;font-weight:normal;font-stretch:normal;font-size:18px;font-family:Sans;-inkscape-font-specification:'Sans, Normal';font-variant-ligatures:normal;font-variant-caps:normal;font-variant-numeric:normal;font-variant-east-asian:normal"
   id="tspan93">e.g.,</tspan></tspan></text><g
     id="figure_1"
     transform="matrix(0.78881337,-0.00168685,0.00387968,0.8517516,243.66931,539.41655)"><g
       id="patch_1"><path
         d="M 0,86.4 H 864 V 0 H 0 Z"
         style="opacity:0;fill:none"
         id="path1-0" /></g><g
       id="axes_1"
       transform="matrix(0.99126926,-2.7402392e-5,-9.129805e-5,1.3484248,789.53907,97.826654)"><g
         id="text_1"><!-- $EEG(t)=\beta_0(t)+\beta_{\mathrm{surprisal}}(t)\,\mathrm{surprisal}+\beta_{\mathrm{freq}}(t)\,\log\mathrm{freq}+\beta_{\mathrm{len}}(t)\,\mathrm{length}+\beta_{\mathrm{ocul}}(t)\,\mathrm{oculomotor}+\varepsilon(t)$ --><g
           transform="matrix(0.18,0,0,-0.18,8.64,47.34)"
           id="g90"><defs
             id="defs2"><path
               id="path66"
               d="M 1081,4666 H 4031 L 3928,4134 H 1606 L 1338,2753 H 3566 L 3463,2222 H 1234 L 909,531 H 3284 L 3181,0 H 172 Z"
               transform="scale(0.015625)" /><path
               id="path67"
               d="m 3494,697 244,1222 H 2700 l 97,519 H 4453 L 4050,384 Q 3634,156 3143,32 2653,-91 2156,-91 1278,-91 783,396 288,884 288,1753 q 0,722 301,1373 302,652 833,1087 334,271 731,404 397,133 881,133 438,0 839,-111 402,-111 768,-333 l -128,-672 q -282,294 -660,449 -378,155 -806,155 -497,0 -875,-190 -378,-189 -675,-585 -253,-338 -399,-796 -145,-458 -145,-933 0,-653 334,-983 335,-329 997,-329 332,0 641,70 309,71 569,205 z"
               transform="scale(0.015625)" /><path
               id="path68"
               d="m 1984,4856 q -418,-718 -622,-1422 -203,-703 -203,-1425 0,-721 205,-1429 205,-708 620,-1424 h -500 q -468,735 -701,1444 -233,709 -233,1409 0,697 231,1403 232,707 703,1444 z"
               transform="scale(0.015625)" /><path
               id="path69"
               d="m 2706,3500 -87,-447 H 1472 L 1100,1153 q -19,-106 -28,-178 -9,-72 -9,-112 0,-200 120,-291 120,-91 386,-91 h 581 L 2053,0 H 1503 Q 991,0 739,200 488,400 488,806 q 0,72 9,158 9,86 28,189 L 897,3053 H 409 l 91,447 h 478 l 194,994 h 575 l -191,-994 z"
               transform="scale(0.015625)" /><path
               id="path70"
               d="m 513,4856 h 500 q 468,-737 701,-1444 233,-706 233,-1403 0,-700 -233,-1409 -233,-709 -701,-1444 H 513 q 415,716 620,1424 205,708 205,1429 0,722 -205,1425 -205,704 -620,1422 z"
               transform="scale(0.015625)" /><path
               id="path71"
               d="M 678,2906 H 4684 V 2381 H 678 Z m 0,-1275 H 4684 V 1100 H 678 Z"
               transform="scale(0.015625)" /><path
               id="path72"
               d="M 872,216 572,-1331 H -6 l 934,4809 q 278,1425 1610,1425 1350,0 1121,-1203 Q 3503,2844 2894,2531 3713,2250 3553,1416 3272,-69 1759,-66 1097,-63 872,216 Z m 147,750 q 240,-544 856,-541 900,0 1091,981 172,882 -1291,813 l 103,531 q 1131,-19 1328,1000 135,688 -597,684 -818,0 -1006,-975 z"
               transform="scale(0.015625)" /><path
               id="path73"
               d="m 2034,4250 q -487,0 -733,-480 -245,-479 -245,-1442 0,-959 245,-1439 246,-480 733,-480 491,0 736,480 246,480 246,1439 0,963 -246,1442 -245,480 -736,480 z m 0,500 q 785,0 1199,-621 414,-620 414,-1801 0,-1178 -414,-1799 -414,-620 -1199,-620 -784,0 -1198,620 -414,621 -414,1799 0,1181 414,1801 414,621 1198,621 z"
               transform="scale(0.015625)" /><path
               id="path74"
               d="M 2944,4013 V 2272 H 4684 V 1741 H 2944 V 0 H 2419 V 1741 H 678 v 531 h 1741 v 1741 z"
               transform="scale(0.015625)" /><path
               id="path75"
               d="m 2834,3397 v -544 q -243,125 -506,187 -262,63 -544,63 -428,0 -642,-131 -214,-131 -214,-394 0,-200 153,-314 153,-114 616,-217 l 197,-44 q 612,-131 870,-370 258,-239 258,-667 0,-488 -386,-773 Q 2250,-91 1575,-91 1294,-91 989,-36 684,19 347,128 v 594 q 319,-166 628,-249 309,-82 613,-82 406,0 624,139 219,139 219,392 0,234 -158,359 -157,125 -692,241 l -200,47 q -534,112 -772,345 -237,233 -237,639 0,494 350,762 350,269 994,269 318,0 599,-47 282,-46 519,-140 z"
               transform="scale(0.015625)" /><path
               id="path76"
               d="m 544,1381 v 2119 h 575 V 1403 q 0,-497 193,-746 194,-248 582,-248 465,0 735,297 271,297 271,810 v 1984 h 575 V 0 H 2900 V 538 Q 2691,219 2414,64 2138,-91 1772,-91 1169,-91 856,284 544,659 544,1381 Z m 1447,2203 z"
               transform="scale(0.015625)" /><path
               id="path77"
               d="m 2631,2963 q -97,56 -211,82 -114,27 -251,27 -488,0 -749,-317 -261,-317 -261,-911 V 0 H 581 v 3500 h 578 v -544 q 182,319 472,473 291,155 707,155 59,0 131,-8 72,-7 159,-23 z"
               transform="scale(0.015625)" /><path
               id="path78"
               d="M 1159,525 V -1331 H 581 v 4831 h 578 v -531 q 182,312 458,463 277,152 661,152 638,0 1036,-506 399,-506 399,-1331 0,-825 -399,-1332 -398,-506 -1036,-506 -384,0 -661,152 -276,152 -458,464 z m 1957,1222 q 0,634 -261,995 -261,361 -717,361 -457,0 -718,-361 -261,-361 -261,-995 0,-634 261,-995 261,-361 718,-361 456,0 717,361 261,361 261,995 z"
               transform="scale(0.015625)" /><path
               id="path79"
               d="m 603,3500 h 575 V 0 H 603 Z m 0,1363 h 575 V 4134 H 603 Z"
               transform="scale(0.015625)" /><path
               id="path80"
               d="m 2194,1759 q -697,0 -966,-159 -269,-159 -269,-544 0,-306 202,-486 202,-179 548,-179 479,0 768,339 289,339 289,901 v 128 z m 1147,238 V 0 H 2766 V 531 Q 2569,213 2275,61 1981,-91 1556,-91 q -537,0 -855,302 -317,302 -317,808 0,590 395,890 396,300 1180,300 h 807 v 57 q 0,397 -261,614 -261,217 -733,217 -300,0 -585,-72 -284,-72 -546,-216 v 532 q 315,122 612,182 297,61 578,61 760,0 1135,-394 375,-393 375,-1193 z"
               transform="scale(0.015625)" /><path
               id="path81"
               d="m 603,4863 h 575 V 0 H 603 Z"
               transform="scale(0.015625)" /><path
               id="path82"
               d="m 2375,4863 v -479 h -550 q -309,0 -430,-125 -120,-125 -120,-450 v -309 h 947 V 3053 H 1275 V 0 H 697 V 3053 H 147 v 447 h 550 v 244 q 0,584 272,851 272,268 862,268 z"
               transform="scale(0.015625)" /><path
               id="path83"
               d="M 3597,1894 V 1613 H 953 q 38,-594 358,-905 320,-311 892,-311 331,0 642,81 311,81 618,244 V 178 Q 3153,47 2828,-22 2503,-91 2169,-91 1331,-91 842,396 353,884 353,1716 q 0,859 464,1363 464,505 1252,505 706,0 1117,-455 411,-454 411,-1235 z m -575,169 q -6,471 -264,752 -258,282 -683,282 -481,0 -770,-272 -289,-272 -333,-766 z"
               transform="scale(0.015625)" /><path
               id="path84"
               d="m 947,1747 q 0,-634 261,-995 261,-361 717,-361 456,0 718,361 263,361 263,995 0,634 -263,995 -262,361 -718,361 -456,0 -717,-361 Q 947,2381 947,1747 Z M 2906,525 Q 2725,213 2448,61 2172,-91 1784,-91 1150,-91 751,415 353,922 353,1747 q 0,825 398,1331 399,506 1033,506 388,0 664,-152 277,-151 458,-463 v 531 h 575 v -4831 h -575 z"
               transform="scale(0.015625)" /><path
               id="path85"
               d="m 1959,3097 q -462,0 -731,-361 -269,-361 -269,-989 0,-628 267,-989 268,-361 733,-361 460,0 728,362 269,363 269,988 0,622 -269,986 -268,364 -728,364 z m 0,487 q 750,0 1178,-488 429,-487 429,-1349 Q 3566,888 3137,398 2709,-91 1959,-91 1206,-91 779,398 353,888 353,1747 q 0,862 426,1349 427,488 1180,488 z"
               transform="scale(0.015625)" /><path
               id="path86"
               d="m 2906,1791 q 0,625 -258,968 -257,344 -723,344 -462,0 -720,-344 -258,-343 -258,-968 0,-622 258,-966 258,-344 720,-344 466,0 723,344 258,344 258,966 z M 3481,434 q 0,-893 -397,-1329 -396,-436 -1215,-436 -303,0 -572,45 -269,45 -522,139 v 559 q 253,-137 500,-202 247,-66 503,-66 566,0 847,295 281,295 281,892 V 616 Q 2728,306 2450,153 2172,0 1784,0 1141,0 747,490 353,981 353,1791 q 0,812 394,1302 394,491 1037,491 388,0 666,-153 278,-153 456,-462 v 531 h 575 z"
               transform="scale(0.015625)" /><path
               id="path87"
               d="M 3513,2113 V 0 h -575 v 2094 q 0,497 -194,743 -194,247 -581,247 -466,0 -735,-297 -269,-296 -269,-809 V 0 H 581 v 3500 h 578 v -544 q 207,316 486,472 280,156 646,156 603,0 912,-373 310,-373 310,-1098 z"
               transform="scale(0.015625)" /><path
               id="path88"
               d="M 1172,4494 V 3500 H 2356 V 3053 H 1172 V 1153 q 0,-428 117,-550 117,-122 477,-122 h 590 V 0 H 1766 Q 1100,0 847,248 594,497 594,1153 V 3053 H 172 v 447 h 422 v 994 z"
               transform="scale(0.015625)" /><path
               id="path89"
               d="M 3513,2113 V 0 h -575 v 2094 q 0,497 -194,743 -194,247 -581,247 -466,0 -735,-297 -269,-296 -269,-809 V 0 H 581 v 4863 h 578 V 2956 q 207,316 486,472 280,156 646,156 603,0 912,-373 310,-373 310,-1098 z"
               transform="scale(0.015625)" /><path
               id="path90"
               d="m 3122,3366 v -538 q -244,135 -489,202 -245,67 -495,67 -560,0 -870,-355 -309,-354 -309,-995 0,-641 309,-996 310,-354 870,-354 250,0 495,67 245,67 489,202 V 134 Q 2881,22 2623,-34 2366,-91 2075,-91 1284,-91 818,406 353,903 353,1747 q 0,856 470,1346 471,491 1290,491 265,0 518,-55 253,-54 491,-163 z"
               transform="scale(0.015625)" /><path
               id="path91"
               d="m 3328,2828 q 216,388 516,572 300,184 706,184 547,0 844,-383 297,-382 297,-1088 V 0 h -578 v 2094 q 0,503 -179,746 -178,244 -543,244 -447,0 -707,-297 -259,-296 -259,-809 V 0 h -578 v 2094 q 0,506 -178,748 -178,242 -550,242 -441,0 -701,-298 -259,-298 -259,-808 V 0 H 581 v 3500 h 578 v -544 q 197,322 472,475 275,153 653,153 382,0 649,-194 267,-193 395,-562 z"
               transform="scale(0.015625)" /><path
               id="path92"
               d="m 1263,1888 q -338,75 -485,278 -109,143 -109,337 0,531 506,841 400,244 1013,244 237,0 496,-38 260,-37 550,-112 l -100,-522 q -287,90 -528,131 -247,41 -468,41 -372,0 -616,-144 -294,-172 -294,-422 0,-166 153,-281 182,-138 544,-138 h 484 l -90,-475 h -463 q -431,0 -684,-159 -344,-216 -344,-553 0,-213 185,-353 231,-175 703,-175 290,0 568,56 279,59 522,175 L 2700,84 Q 2403,-3 2131,-47 1859,-91 1609,-91 866,-91 516,194 250,413 250,781 q 0,497 350,803 259,229 663,304 z"
               transform="scale(0.015625)" /></defs><use
             xlink:href="#DejaVuSans-Oblique-45-4"
             transform="translate(0,0.390625)"
             id="use2" /><use
             xlink:href="#DejaVuSans-Oblique-45-4"
             transform="translate(63.183594,0.390625)"
             id="use3" /><use
             xlink:href="#DejaVuSans-Oblique-47-5"
             transform="translate(126.36719,0.390625)"
             id="use4" /><use
             xlink:href="#DejaVuSans-28-1"
             transform="translate(203.85742,0.390625)"
             id="use5" /><use
             xlink:href="#DejaVuSans-Oblique-74-2"
             transform="translate(242.87109,0.390625)"
             id="use6" /><use
             xlink:href="#DejaVuSans-29-3"
             transform="translate(282.08008,0.390625)"
             id="use7" /><use
             xlink:href="#DejaVuSans-3d-7"
             transform="translate(340.57617,0.390625)"
             id="use8" /><use
             xlink:href="#DejaVuSans-Oblique-3b2-2"
             transform="translate(443.84766,0.390625)"
             id="use9" /><use
             xlink:href="#DejaVuSans-30-4"
             transform="matrix(0.7,0,0,0.7,507.66602,-16.015625)"
             id="use10" /><use
             xlink:href="#DejaVuSans-28-1"
             transform="translate(554.93652,0.390625)"
             id="use11" /><use
             xlink:href="#DejaVuSans-Oblique-74-2"
             transform="translate(593.95019,0.390625)"
             id="use12" /><use
             xlink:href="#DejaVuSans-29-3"
             transform="translate(633.15918,0.390625)"
             id="use13" /><use
             xlink:href="#DejaVuSans-2b-1"
             transform="translate(691.65527,0.390625)"
             id="use14" /><use
             xlink:href="#DejaVuSans-Oblique-3b2-2"
             transform="translate(794.92676,0.390625)"
             id="use15" /><use
             xlink:href="#DejaVuSans-73-8"
             transform="matrix(0.7,0,0,0.7,858.74512,-16.015625)"
             id="use16" /><use
             xlink:href="#DejaVuSans-75-2"
             transform="matrix(0.7,0,0,0.7,895.21484,-16.015625)"
             id="use17" /><use
             xlink:href="#DejaVuSans-72-6"
             transform="matrix(0.7,0,0,0.7,939.58008,-16.015625)"
             id="use18" /><use
             xlink:href="#DejaVuSans-70-0"
             transform="matrix(0.7,0,0,0.7,968.35937,-16.015625)"
             id="use19" /><use
             xlink:href="#DejaVuSans-72-6"
             transform="matrix(0.7,0,0,0.7,1012.793,-16.015625)"
             id="use20" /><use
             xlink:href="#DejaVuSans-69-3"
             transform="matrix(0.7,0,0,0.7,1041.5723,-16.015625)"
             id="use21" /><use
             xlink:href="#DejaVuSans-73-8"
             transform="matrix(0.7,0,0,0.7,1061.0205,-16.015625)"
             id="use22" /><use
             xlink:href="#DejaVuSans-61-9"
             transform="matrix(0.7,0,0,0.7,1097.4902,-16.015625)"
             id="use23" /><use
             xlink:href="#DejaVuSans-6c-4"
             transform="matrix(0.7,0,0,0.7,1140.3857,-16.015625)"
             id="use24" /><use
             xlink:href="#DejaVuSans-28-1"
             transform="translate(1162.5684,0.390625)"
             id="use25" /><use
             xlink:href="#DejaVuSans-Oblique-74-2"
             transform="translate(1201.582,0.390625)"
             id="use26" /><use
             xlink:href="#DejaVuSans-29-3"
             transform="translate(1240.791,0.390625)"
             id="use27" /><use
             xlink:href="#DejaVuSans-73-8"
             transform="translate(1296.0404,0.390625)"
             id="use28" /><use
             xlink:href="#DejaVuSans-75-2"
             transform="translate(1348.14,0.390625)"
             id="use29" /><use
             xlink:href="#DejaVuSans-72-6"
             transform="translate(1411.5189,0.390625)"
             id="use30" /><use
             xlink:href="#DejaVuSans-70-0"
             transform="translate(1452.6322,0.390625)"
             id="use31" /><use
             xlink:href="#DejaVuSans-72-6"
             transform="translate(1516.1087,0.390625)"
             id="use32" /><use
             xlink:href="#DejaVuSans-69-3"
             transform="translate(1557.222,0.390625)"
             id="use33" /><use
             xlink:href="#DejaVuSans-73-8"
             transform="translate(1585.0052,0.390625)"
             id="use34" /><use
             xlink:href="#DejaVuSans-61-9"
             transform="translate(1637.1048,0.390625)"
             id="use35" /><use
             xlink:href="#DejaVuSans-6c-4"
             transform="translate(1698.3841,0.390625)"
             id="use36" /><use
             xlink:href="#DejaVuSans-2b-1"
             transform="translate(1745.6497,0.390625)"
             id="use37" /><use
             xlink:href="#DejaVuSans-Oblique-3b2-2"
             transform="translate(1848.9212,0.390625)"
             id="use38" /><use
             xlink:href="#DejaVuSans-66-9"
             transform="matrix(0.7,0,0,0.7,1912.7396,-16.015625)"
             id="use39" /><use
             xlink:href="#DejaVuSans-72-6"
             transform="matrix(0.7,0,0,0.7,1937.3831,-16.015625)"
             id="use40" /><use
             xlink:href="#DejaVuSans-65-6"
             transform="matrix(0.7,0,0,0.7,1966.1624,-16.015625)"
             id="use41" /><use
             xlink:href="#DejaVuSans-71-5"
             transform="matrix(0.7,0,0,0.7,2009.2288,-16.015625)"
             id="use42" /><use
             xlink:href="#DejaVuSans-28-1"
             transform="translate(2056.3968,0.390625)"
             id="use43" /><use
             xlink:href="#DejaVuSans-Oblique-74-2"
             transform="translate(2095.4105,0.390625)"
             id="use44" /><use
             xlink:href="#DejaVuSans-29-3"
             transform="translate(2134.6195,0.390625)"
             id="use45" /><use
             xlink:href="#DejaVuSans-6c-4"
             transform="translate(2189.8688,0.390625)"
             id="use46" /><use
             xlink:href="#DejaVuSans-6f-1"
             transform="translate(2217.652,0.390625)"
             id="use47" /><use
             xlink:href="#DejaVuSans-67-3"
             transform="translate(2278.8337,0.390625)"
             id="use48" /><use
             xlink:href="#DejaVuSans-66-9"
             transform="translate(2358.5459,0.390625)"
             id="use49" /><use
             xlink:href="#DejaVuSans-72-6"
             transform="translate(2393.751,0.390625)"
             id="use50" /><use
             xlink:href="#DejaVuSans-65-6"
             transform="translate(2434.8643,0.390625)"
             id="use51" /><use
             xlink:href="#DejaVuSans-71-5"
             transform="translate(2496.3877,0.390625)"
             id="use52" /><use
             xlink:href="#DejaVuSans-2b-1"
             transform="translate(2579.3467,0.390625)"
             id="use53" /><use
             xlink:href="#DejaVuSans-Oblique-3b2-2"
             transform="translate(2682.6182,0.390625)"
             id="use54" /><use
             xlink:href="#DejaVuSans-6c-4"
             transform="matrix(0.7,0,0,0.7,2746.4365,-16.015625)"
             id="use55" /><use
             xlink:href="#DejaVuSans-65-6"
             transform="matrix(0.7,0,0,0.7,2765.8848,-16.015625)"
             id="use56" /><use
             xlink:href="#DejaVuSans-6e-2"
             transform="matrix(0.7,0,0,0.7,2808.9512,-16.015625)"
             id="use57" /><use
             xlink:href="#DejaVuSans-28-1"
             transform="translate(2856.0508,0.390625)"
             id="use58" /><use
             xlink:href="#DejaVuSans-Oblique-74-2"
             transform="translate(2895.0645,0.390625)"
             id="use59" /><use
             xlink:href="#DejaVuSans-29-3"
             transform="translate(2934.2734,0.390625)"
             id="use60" /><use
             xlink:href="#DejaVuSans-6c-4"
             transform="translate(2989.5228,0.390625)"
             id="use61" /><use
             xlink:href="#DejaVuSans-65-6"
             transform="translate(3017.306,0.390625)"
             id="use62" /><use
             xlink:href="#DejaVuSans-6e-2"
             transform="translate(3078.8294,0.390625)"
             id="use63" /><use
             xlink:href="#DejaVuSans-67-3"
             transform="translate(3142.2083,0.390625)"
             id="use64" /><use
             xlink:href="#DejaVuSans-74-6"
             transform="translate(3205.6849,0.390625)"
             id="use65" /><use
             xlink:href="#DejaVuSans-68-9"
             transform="translate(3244.8939,0.390625)"
             id="use66" /><use
             xlink:href="#DejaVuSans-2b-1"
             transform="translate(3327.7552,0.390625)"
             id="use67" /><use
             xlink:href="#DejaVuSans-Oblique-3b2-2"
             transform="translate(3431.0267,0.390625)"
             id="use68" /><use
             xlink:href="#DejaVuSans-6f-1"
             transform="matrix(0.7,0,0,0.7,3494.845,-16.015625)"
             id="use69" /><use
             xlink:href="#DejaVuSans-63-0"
             transform="matrix(0.7,0,0,0.7,3537.6722,-16.015625)"
             id="use70" /><use
             xlink:href="#DejaVuSans-75-2"
             transform="matrix(0.7,0,0,0.7,3576.1585,-16.015625)"
             id="use71" /><use
             xlink:href="#DejaVuSans-6c-4"
             transform="matrix(0.7,0,0,0.7,3620.5238,-16.015625)"
             id="use72" /><use
             xlink:href="#DejaVuSans-28-1"
             transform="translate(3642.7064,0.390625)"
             id="use73" /><use
             xlink:href="#DejaVuSans-Oblique-74-2"
             transform="translate(3681.72,0.390625)"
             id="use74" /><use
             xlink:href="#DejaVuSans-29-3"
             transform="translate(3720.929,0.390625)"
             id="use75" /><use
             xlink:href="#DejaVuSans-6f-1"
             transform="translate(3776.1784,0.390625)"
             id="use76" /><use
             xlink:href="#DejaVuSans-63-0"
             transform="translate(3837.36,0.390625)"
             id="use77" /><use
             xlink:href="#DejaVuSans-75-2"
             transform="translate(3892.3405,0.390625)"
             id="use78" /><use
             xlink:href="#DejaVuSans-6c-4"
             transform="translate(3955.7194,0.390625)"
             id="use79" /><use
             xlink:href="#DejaVuSans-6f-1"
             transform="translate(3983.5026,0.390625)"
             id="use80" /><use
             xlink:href="#DejaVuSans-6d-0"
             transform="translate(4044.6842,0.390625)"
             id="use81" /><use
             xlink:href="#DejaVuSans-6f-1"
             transform="translate(4142.0963,0.390625)"
             id="use82" /><use
             xlink:href="#DejaVuSans-74-6"
             transform="translate(4203.278,0.390625)"
             id="use83" /><use
             xlink:href="#DejaVuSans-6f-1"
             transform="translate(4242.487,0.390625)"
             id="use84" /><use
             xlink:href="#DejaVuSans-72-6"
             transform="translate(4303.6686,0.390625)"
             id="use85" /><use
             xlink:href="#DejaVuSans-2b-1"
             transform="translate(4364.2643,0.390625)"
             id="use86" /><use
             xlink:href="#DejaVuSans-Oblique-3b5-3"
             transform="translate(4467.5358,0.390625)"
             id="use87" /><use
             xlink:href="#DejaVuSans-28-1"
             transform="translate(4521.5885,0.390625)"
             id="use88" /><use
             xlink:href="#DejaVuSans-Oblique-74-2"
             transform="translate(4560.6022,0.390625)"
             id="use89" /><use
             xlink:href="#DejaVuSans-29-3"
             transform="translate(4599.8112,0.390625)"
             id="use90" /></g></g></g></g></svg>
